<svg width="32" height="32" viewBox="0 0 32 32" fill="none" xmlns="http://www.w3.org/2000/svg">
<path d="M27.0285 28H5.00001C4.46347 28 4.00001 27.7031 4.00001 27V5C4.00001 4.5 4.50001 4 5.00001 4C5.50001 4 5.50001 4 6.00001 4C6.52735 4 7.00001 4.5 7.00001 5V25H27.0285C27.5 25 28 25.5 28 26C28 26.5 28 26.5391 28 27C28 27.5 27.5 28 27.0285 28Z" fill="white"/>
<path d="M9.00001 24C8.8492 24 8.50001 24 8.00001 24C8.00001 24 8.00001 23.3125 8.00001 23C8.00001 22.6875 7.99211 22.2403 8.00001 22L8.00001 6H9.00001C9.00001 6 9.50001 6 10 6C10.5 6 11 6 11 5.99429C11 5.98857 11 6 11 5.99429L17.5 14.5L27 11C27 11.1875 27 14 27 14L17 18.5L11 11V24C11 24 10 24 9.50001 24C9.50001 24 9.18594 24.001 9.00001 24Z" fill="#2589F5"/>
</svg>
